<svg id="visual" viewBox="0 0 960 540" width="960" height="540" xmlns="http://www.w3.org/2000/svg" xmlns:xlink="http://www.w3.org/1999/xlink" version="1.1"><path d="M0 55L40 63.2C80 71.3 160 87.7 240 85.8C320 84 400 64 480 50.5C560 37 640 30 720 29.2C800 28.3 880 33.7 920 36.3L960 39L960 0L920 0C880 0 800 0 720 0C640 0 560 0 480 0C400 0 320 0 240 0C160 0 80 0 40 0L0 0Z" fill="#ffffff"></path><path d="M0 206L40 200.7C80 195.3 160 184.7 240 201.8C320 219 400 264 480 262.2C560 260.3 640 211.7 720 197.2C800 182.7 880 202.3 920 212.2L960 222L960 37L920 34.3C880 31.7 800 26.3 720 27.2C640 28 560 35 480 48.5C400 62 320 82 240 83.8C160 85.7 80 69.3 40 61.2L0 53Z" fill="#ffffff"></path><path d="M0 287L40 269C80 251 160 215 240 219.5C320 224 400 269 480 275.3C560 281.7 640 249.3 720 254.8C800 260.3 880 303.7 920 325.3L960 347L960 220L920 210.2C880 200.3 800 180.7 720 195.2C640 209.7 560 258.3 480 260.2C400 262 320 217 240 199.8C160 182.7 80 193.3 40 198.7L0 204Z" fill="#ffffff"></path><path d="M0 325L40 314.2C80 303.3 160 281.7 240 288.8C320 296 400 332 480 329.3C560 326.7 640 285.3 720 291.7C800 298 880 352 920 379L960 406L960 345L920 323.3C880 301.7 800 258.3 720 252.8C640 247.3 560 279.7 480 273.3C400 267 320 222 240 217.5C160 213 80 249 40 267L0 285Z" fill="#fcfcfc"></path><path d="M0 503L40 500.3C80 497.7 160 492.3 240 481.5C320 470.7 400 454.3 480 436.3C560 418.3 640 398.7 720 406.8C800 415 880 451 920 469L960 487L960 404L920 377C880 350 800 296 720 289.7C640 283.3 560 324.7 480 327.3C400 330 320 294 240 286.8C160 279.7 80 301.3 40 312.2L0 323Z" fill="#f5f5f5"></path><path d="M0 541L40 541C80 541 160 541 240 541C320 541 400 541 480 541C560 541 640 541 720 541C800 541 880 541 920 541L960 541L960 485L920 467C880 449 800 413 720 404.8C640 396.7 560 416.3 480 434.3C400 452.3 320 468.7 240 479.5C160 490.3 80 495.7 40 498.3L0 501Z" fill="#eeeeee"></path></svg>