<svg id="visual" viewBox="0 0 900 600" width="900" height="600" xmlns="http://www.w3.org/2000/svg" xmlns:xlink="http://www.w3.org/1999/xlink" version="1.1"><g><g transform="translate(809 187)"><path d="M0 -106.2L92 -53.1L92 53.1L0 106.2L-92 53.1L-92 -53.1Z" fill="none" stroke="#297EA6" stroke-width="2"></path></g><g transform="translate(477 6)"><path d="M0 -58L50.2 -29L50.2 29L0 58L-50.2 29L-50.2 -29Z" fill="none" stroke="#297EA6" stroke-width="2"></path></g><g transform="translate(617 338)"><path d="M0 -103L89.2 -51.5L89.2 51.5L0 103L-89.2 51.5L-89.2 -51.5Z" stroke="#297EA6" fill="none" stroke-width="2"></path></g><g transform="translate(897 554)"><path d="M0 -99L85.7 -49.5L85.7 49.5L0 99L-85.7 49.5L-85.7 -49.5Z" stroke="#297EA6" fill="none" stroke-width="2"></path></g><g transform="translate(255 280)"><path d="M0 -50L43.3 -25L43.3 25L0 50L-43.3 25L-43.3 -25Z" stroke="#297EA6" fill="none" stroke-width="2"></path></g><g transform="translate(120 68)"><path d="M0 -63L54.6 -31.5L54.6 31.5L0 63L-54.6 31.5L-54.6 -31.5Z" stroke="#297EA6" fill="none" stroke-width="2"></path></g><g transform="translate(559 558)"><path d="M0 -57L49.4 -28.5L49.4 28.5L0 57L-49.4 28.5L-49.4 -28.5Z" stroke="#297EA6" fill="none" stroke-width="2"></path></g><g transform="translate(39 554)"><path d="M0 -103L89.2 -51.5L89.2 51.5L0 103L-89.2 51.5L-89.2 -51.5Z" stroke="#297EA6" fill="none" stroke-width="2"></path></g><g transform="translate(288 598)"><path d="M0 -44L38.1 -22L38.1 22L0 44L-38.1 22L-38.1 -22Z" stroke="#297EA6" fill="none" stroke-width="2"></path></g><g transform="translate(39 281)"><path d="M0 -76L65.8 -38L65.8 38L0 76L-65.8 38L-65.8 -38Z" stroke="#297EA6" fill="none" stroke-width="2"></path></g></g></svg>